<svg width="200" height="200" viewBox="0 0 200 200" fill="none" xmlns="http://www.w3.org/2000/svg">
<path d="M147.162 38.7062C143.998 36.8717 141.043 34.6955 137.926 32.7842L130.187 27.9648C128.154 26.7203 123.662 24.785 122.987 22.2461C122.296 19.6486 122.329 4.04921 122.651 0.299505C122.991 -3.66506 127.569 -5.47163 130.556 -7.38219C135.384 -10.4706 140.17 -13.8678 145.15 -16.6936C149.532 -19.1802 152.378 -15.9017 155.923 -13.5353C158.381 -11.8944 160.897 -10.331 163.385 -8.73536C167.504 -6.09331 172.066 -5.29585 172.645 -0.480673L172.634 -0.290478C172.525 1.7231 172.632 3.76322 172.638 5.78107L172.649 16.9258C172.648 25.5637 172.843 24.9103 165.81 29.1373C161.4 31.7869 153.063 36.1439 149.298 39.3648C149.217 47.1279 149.279 54.9016 149.298 62.6652C163.314 63.1826 176.946 71.2791 183.49 83.7935C188.893 79.7875 196.866 75.2383 202.731 71.718L202.724 56.3986C202.725 46.0779 201.275 46.5379 210.477 40.9434L217.432 36.6473C221.162 34.324 225.847 29.6365 230.543 31.8203C232.511 32.7355 249.632 43.4834 250.789 44.7414C252.203 46.2795 253.391 48.9994 254.659 50.8416C254.736 55.1799 255.236 66.3853 254.552 70.3252C253.997 73.5291 249.596 75.2295 247.116 76.7599C242.401 79.6697 235.389 84.8371 230.741 86.9611C229.62 87.4732 228.473 87.3443 227.292 87.5078C223.828 86.626 220.764 84.0754 217.748 82.2625L209.226 77.0711C207.469 75.9935 205.526 75.0197 204.008 73.6111C197.381 77.3769 191.153 81.8635 184.506 85.5689C184.942 86.4701 185.377 87.3361 185.927 88.1734C185.963 90.8213 187.478 93.3971 187.989 95.9846C190.138 106.87 187.269 114.797 182.006 123.897C183.39 124.451 184.689 125.039 185.927 125.876C189.628 128.656 199.891 134.779 204.008 136.608C207.529 133.54 217.048 128.02 221.348 125.403C224.062 123.751 226.981 121.29 230.251 123.019C233.061 124.504 250.486 135.216 251.096 135.934C251.623 136.554 251.806 137.305 252.036 138.068C253.001 138.769 253.819 139.626 254.659 140.469L254.646 140.639C254.25 146.148 255.516 158.584 253.969 162.978C253.063 165.551 242.293 171.094 239.39 172.869C235.916 174.993 232.812 178.043 228.553 178.199C227.818 178.226 227.528 178.12 226.911 178.553C221.016 175.732 210.609 169.586 205.242 165.912C201.484 163.338 202.763 159.831 202.755 156.029L202.724 144.197C202.712 142.328 202.486 140.36 202.731 138.509C197.068 135.487 189.855 131.211 184.506 127.688L181.109 125.453C173.632 135.612 161.845 141.996 149.298 142.82C149.299 148.468 149.101 154.175 149.298 159.817V166.09C154.168 169.31 159.134 172.356 164.072 175.47C168.048 177.978 172.45 179.406 172.645 184.733L172.651 200.11C172.676 209.3 173.61 207.442 165.437 212.353L157.891 216.913C154.281 219.11 151.462 221.617 147.162 222.115C143.975 221.009 143.736 220.938 140.611 219.014L133.143 214.357C129.3 211.948 123.383 209.908 122.844 204.799C122.483 201.377 122.204 184.104 123.298 181.498C124.234 179.267 127.934 177.621 129.866 176.421L138.019 171.409C140.961 169.633 144.019 167.434 147.162 166.09C147.556 162.101 147.566 148.938 147.162 144.917V142.82C144.315 142.824 138.557 141.31 137.076 141.628C128.146 138.384 121.301 133.577 115.702 125.876C108.955 129.014 103.365 134.373 96.5579 137.532C96.5878 138.899 96.5866 140.26 96.5579 141.628L96.5257 141.919C96.3593 143.574 96.5245 145.4 96.5386 147.07L96.5813 157.42C96.5966 166.329 93.8767 165.348 86.7019 169.926L79.1872 174.734C76.6841 176.325 74.8302 177.611 71.8829 178.172C67.861 177.913 52.4892 168.595 48.3732 165.641C44.3856 162.779 45.5072 158.979 45.5093 154.684L45.494 145.72C45.528 138.29 46.0442 137.106 52.7689 132.923L60.0938 128.381C71.9855 121.016 68.6521 119.833 81.0851 127.493C85.9237 130.474 91.1398 133.149 95.6491 136.608C98.6983 133.2 109.562 127.097 114.317 123.897C106.686 112.661 106.364 96.506 112.424 84.5869C108.224 81.8576 103.397 79.6674 99.4571 76.5994C98.2144 75.8137 96.8556 75.257 95.6491 74.4115C89.6462 77.3172 77.2507 86.5492 71.8829 87.5078C68.1921 86.5082 49.1354 75.3098 47.023 73.0586C43.8889 69.7182 45.3479 56.8715 45.4868 51.4357C45.6685 44.3248 50.2231 43.3252 55.5136 39.8523L62.9093 35.0125C69.9517 30.4885 71.021 30.2945 77.9907 34.5965L85.0331 38.9898C89.4985 41.7783 97.2927 44.4467 96.828 50.8416V73.0703C97.5874 73.3416 98.2149 73.6187 98.8993 74.0582L99.4571 74.4115C101.243 75.2863 102.924 76.4025 104.634 77.418L113.528 82.6873C121.028 71.0055 132.952 63.1123 147.162 62.6652V38.7062ZM151.254 -13.8866C150.168 -14.7269 149.267 -15.367 147.932 -15.7781C145.821 -15.0228 143.98 -13.4201 142.082 -12.2411L131.117 -5.27815C128.324 -3.49181 124.71 -2.48071 124.539 1.15046C124.293 6.37802 124.044 16.3398 124.526 21.5471C125.541 22.6357 126.693 23.4273 127.988 24.1539C133.884 28.198 140.606 30.9543 146.054 35.7145L146.06 21.9572C146.066 19.3557 146.152 16.7312 146.054 14.132V12.3879C144.378 11.5054 128.855 1.67728 128.479 1.11132C128 0.388683 128.666 -0.211435 129.311 -0.480673C134.743 1.86032 142.533 7.68454 147.932 10.8628C151.498 9.43169 165.396 0.149155 169.382 -2.49026C164.304 -5.52624 156.123 -11.6082 151.254 -13.8866ZM170.371 0.570091L170.255 -0.303308C169.031 -0.417273 152.105 11.5054 148.323 12.8945V36.9391C149.169 36.5787 150.03 36.2518 150.782 35.7145C153.994 34.007 170.067 24.3332 170.26 22.8021C170.89 17.824 170.62 5.81499 170.371 0.570091ZM74.4147 34.6791C68.744 31.7254 64.0091 36.9062 59.1605 39.9807C43.3739 49.9902 47.8516 46.2801 47.5537 65.5246C47.4979 69.1252 46.4649 70.4113 50.2421 73.0703C56.0433 76.3246 64.9776 81.1516 70.145 85.0568L70.1497 70.5971C70.1532 68.3342 70.3618 65.9219 70.145 63.6795C71.0292 62.2598 72.1571 62.6559 72.2749 64.3685C72.6353 69.5934 72.6071 79.8965 72.248 85.0568C72.9681 84.9889 74.2929 85.0375 74.8741 84.5869C81.2755 80.2785 88.2183 76.7283 94.5112 72.2963C94.6847 70.1594 94.5212 67.9258 94.5189 65.7766L94.5112 52.3193C94.7274 51.1715 94.639 50.0775 94.5112 48.9268C89.4165 52.2689 76.5042 60.6666 71.3087 62.6652C67.9091 60.3572 53.2534 52.331 51.3776 50.1373C50.8216 49.4875 51.5232 48.8541 52.0514 48.4598C57.5494 51.6174 67.4966 56.9711 71.8829 60.5307C74.0919 58.8373 76.612 57.4603 78.9821 55.9996L93.8415 47.0002C89.0274 43.0539 79.9741 38.3957 74.4147 34.6791ZM236.244 37.8789C234.471 36.7334 229.27 32.8275 227.314 33.3238C225.23 33.8523 206.086 45.7574 204.795 47.4572V71.718C205.771 72.2875 206.684 72.8892 207.555 73.6111C213.14 76.9721 221.356 82.5068 226.911 85.0568C226.993 78.168 226.562 71.1642 226.911 64.2924C227.608 63.9742 228.437 63.7498 228.986 64.3949L228.921 78.2799C228.925 80.4613 229.219 82.9176 228.92 85.0568C229.931 84.7205 231.011 84.424 231.886 83.7935L243.937 76.2525C253.236 70.4939 252.764 72.9168 252.695 61.7594C252.684 60.015 253.28 51.9865 252.036 50.8416C251.368 50.3963 251.053 49.6387 250.75 48.9268C246.236 52.8461 233.651 59.6594 227.82 63.5605C227.377 63.4721 227.741 62.7982 227.348 62.4379C225.891 61.0996 217.512 56.3945 215.482 55.1711C214.35 54.4891 204.668 50.2158 208.221 48.4598C211.502 49.5232 224.967 58.2959 228.191 60.5307C232.249 58.409 246.42 49.8889 249.919 47.0002C248.933 45.3226 238.595 39.0262 236.244 37.8789ZM174.098 75.1674C159.096 61.0269 135.533 61.5051 121.117 76.2431C106.702 90.9807 106.744 114.549 121.213 129.234C130.813 138.979 144.927 142.78 158.123 139.175C171.319 135.57 181.539 125.121 184.852 111.849C188.164 98.5762 184.052 84.55 174.098 75.1674ZM90.2081 135.439C85.7825 133.282 81.4753 130.431 77.3022 127.81C71.103 123.916 72.5585 123.115 66.02 127.156L58.4716 131.871C56.4248 133.156 49.3472 136.779 48.3953 138.981C47.0859 142.01 47.235 160.599 47.8633 162.127C48.2593 163.09 49.4396 163.881 50.2421 164.508C56.7297 167.602 64.0255 173.607 70.145 175.934L70.1491 162.02C70.1532 159.715 70.3261 157.301 70.145 155.007C70.237 154.448 70.4187 152.955 71.3356 153.527C72.9939 154.56 72.2491 160.212 72.248 161.937V175.934C73.1122 175.66 74.0263 175.557 74.8741 175.278C80.8841 171.063 89.1095 166.738 94.5112 162.389C94.5786 155.869 94.5118 149.341 94.5112 142.82V139.271C88.6243 143.427 80.8683 147.921 74.6286 151.696C70.8933 153.956 69.9189 152.467 66.5421 150.46L57.4553 144.945C56.5598 144.403 47.7867 140.477 52.0514 139.271C53.5644 139.82 55.2106 141.123 56.6153 141.979L65.43 147.338C67.523 148.599 69.644 149.959 71.8829 150.946C77.4024 148.696 87.2556 140.901 93.3493 137.532C92.2765 136.865 91.2159 136.204 90.2081 135.439ZM249.171 137.532C247.802 136.132 230.087 125.252 228.191 124.582C224.332 125.35 209.171 135.297 206.636 137.532C207.527 138.153 208.4 138.763 209.362 139.271C211.275 140.853 213.814 142.065 215.939 143.363L228.191 150.946C230.975 149.618 249.182 138.484 249.485 137.775L249.171 137.532ZM252.693 142.417C252.776 140.87 251.987 140.484 250.75 139.825C249.009 140.631 247.34 141.81 245.704 142.816L235.03 149.418C233.039 150.637 231.028 151.984 228.92 152.986V175.934C229.775 175.848 230.769 175.846 231.464 175.278C236.325 172.336 248.456 165.575 252.036 162.389L252.029 153.228C252.025 149.626 251.883 145.947 252.693 142.417ZM226.617 155.007V152.386L210.882 142.891C208.868 141.699 206.879 140.327 204.795 139.271L204.791 155.457C204.783 159.927 203.242 162.236 207.555 164.508C208.15 165.529 224.476 174.559 226.617 175.934V155.007ZM151.254 170.121C150.251 169.399 149.193 168.706 148.323 167.824C145.567 169.267 125.735 180.701 125.145 182.569C124.585 184.341 124.976 196.152 124.967 198.963C124.952 202.928 123.701 205.993 127.587 208.411C133.917 211.836 139.776 216.19 146.054 219.721C145.858 212.727 146.249 205.704 146.054 198.708C146.409 197.966 146.899 197.549 147.729 197.86C148.861 199.257 148.224 216.975 148.323 219.721C149.182 219.381 149.99 219.045 150.782 218.565C154.43 216.719 168.098 208.439 170.371 206.298C170.556 204.302 170.384 202.141 170.382 200.127L170.371 187.155C170.646 185.772 170.452 184.254 170.371 182.854C168.702 184.855 150.793 196.135 147.162 197.576C143.523 196.067 136.194 190.706 132.861 188.386C131.937 187.743 125.668 184.628 128.262 183.01C128.741 183.039 128.911 183.197 129.311 183.449C131.146 185.443 144.082 193.141 147.162 195.198C153.72 192.21 162.956 185.349 169.382 181.389C163.958 178.316 156.348 172.408 151.254 170.121Z" fill="#212121"/>
<path d="M151.255 -13.8867C156.124 -11.6084 164.305 -5.52638 169.383 -2.49041C165.397 0.149006 151.499 9.43155 147.933 10.8626C142.534 7.6844 134.744 1.86018 129.312 -0.480822C130.494 -1.31174 131.78 -2.00912 132.997 -2.7883L142.508 -8.76404C144.905 -10.2421 148.687 -13.0847 151.255 -13.8867Z" fill="#1EBFA2"/>
<path d="M172.644 -0.480469C173.844 0.23918 175.135 1.06272 175.475 2.52393C175.839 4.08574 175.769 22.2281 175.577 24.593C175.379 27.0305 174.884 27.7172 172.867 29.0144C168.124 32.0643 158.592 37.8609 153.69 40.1098C152.921 39.249 151.672 39.5256 150.782 40.1098C150.278 39.8807 149.788 39.6182 149.297 39.365C153.062 36.1441 161.399 31.7871 165.809 29.1375C172.842 24.9105 172.647 25.5639 172.648 16.926L172.638 5.78127C172.631 3.76342 172.525 1.7233 172.633 -0.290273L172.644 -0.480469Z" fill="#14BBAB"/>
<path d="M170.37 0.570312C170.619 5.81521 170.889 17.8242 170.259 22.8024C170.066 24.3334 153.993 34.0072 150.781 35.7147C150.523 28.8815 150.655 21.5309 150.781 14.6889C153.574 12.8438 168.277 3.37156 170.37 2.87463V0.570312Z" fill="#1EBFA2"/>
<path d="M127.586 3.34961C133.138 5.77756 140.38 11.0378 146.052 14.1319C146.151 16.7311 146.064 19.3556 146.058 21.9571L146.052 35.7143C140.605 30.9542 133.883 28.1979 127.986 24.1538C127.517 16.9638 127.727 10.4962 127.586 3.34961Z" fill="#14BBAB"/>
<path d="M91.4106 22.1688C87.5446 20.8868 96.9226 16.337 97.8179 15.7792C100.946 13.8315 104.019 11.7555 107.212 9.91797C112.75 11.0254 92.4852 21.57 91.4106 22.1688Z" fill="#212121"/>
<path d="M208.222 22.1698C206.266 22.1124 199.478 17.5081 197.493 16.3597C195.514 15.2153 189.742 13.2853 191.442 10.8633C193.682 10.9089 198.256 14.4325 200.303 15.6454C202.557 16.9802 209.552 19.5009 208.222 22.1698Z" fill="#212121"/>
<path d="M52.0508 48.4604C54.464 46.0691 71.5102 35.4859 74.4141 34.6797C79.9735 38.3963 89.0268 43.0545 93.8408 47.0008L78.9815 56.0002C76.6114 57.4609 74.0912 58.8379 71.8822 60.5313C67.4959 56.9717 57.5488 51.618 52.0508 48.4604Z" fill="#EE5B5B"/>
<path d="M150.781 40.1092C151.672 39.525 152.921 39.2485 153.69 40.1092C153.264 40.2938 152.763 40.3993 152.315 40.5288L150.781 40.1092Z" fill="#1EBFA2"/>
<path d="M96.8281 50.8418C100.752 51.1635 99.4625 57.8063 99.4631 60.4049L99.4572 74.4117L98.8994 74.0584C98.215 73.6189 97.5875 73.3418 96.8281 73.0705V50.8418Z" fill="#437DE9"/>
<path d="M50.2422 52.3203C56.582 54.8234 63.0934 60.8539 70.1451 63.6805C70.3619 65.9229 70.1533 68.3352 70.1498 70.598L70.1451 85.0578C64.9778 81.1525 56.0434 76.3256 50.2422 73.0713V52.3203Z" fill="#437DE9"/>
<path d="M74.875 64.2934C80.4555 61.6455 89.3553 55.7756 94.5121 52.3203L94.5197 65.7775C94.5221 67.9268 94.6856 70.1604 94.5121 72.2973C88.2191 76.7293 81.2764 80.2795 74.875 84.5879L74.8768 71.3059C74.8809 68.9721 75.0057 66.6231 74.875 64.2934Z" fill="#437DE9"/>
<path d="M121.214 129.234C120.18 126.612 117.51 123.813 116.006 119.976C102.895 86.527 140.089 53.8926 170.561 73.0399C171.725 73.7711 172.818 74.643 174.098 75.1674C184.052 84.55 188.164 98.5762 184.852 111.849C181.54 125.121 171.319 135.57 158.123 139.175C144.928 142.78 130.814 138.979 121.214 129.234ZM150.495 73.6112C133.218 74.1959 119.23 87.2805 120.221 105.09C120.315 106.783 121.094 106.986 122.611 106.496C121.593 91.208 131.712 77.0207 147.478 76.0715C148.968 75.9813 151.366 76.2133 152.58 75.3438C153.459 73.6785 151.501 73.5901 150.495 73.6112ZM173.221 116.557C171.962 117.817 171.055 119.362 169.879 120.692C165.98 125.096 160.15 128.675 154.352 129.97C153.449 130.171 147.355 130.408 149.837 132.656C150.113 132.906 150.43 132.924 150.783 132.951C158.569 131.622 165.052 128.855 170.62 123.152C171.473 122.279 177.309 116.469 173.221 116.557Z" fill="#437DE9"/>
<path d="M122.612 106.496C121.095 106.987 120.316 106.783 120.222 105.091C119.23 87.281 133.219 74.1965 150.496 73.6117C151.502 73.5906 153.459 73.6791 152.58 75.3443C151.366 76.2138 148.969 75.9818 147.479 76.0721C131.713 77.0213 121.593 91.2086 122.612 106.496Z" fill="#212121"/>
<path d="M99.457 76.6C97.002 77.4344 94.7584 79.0387 92.5301 80.3576L82.759 86.207C80.427 87.6332 78.1811 89.2779 75.474 89.8844C74.0297 89.4221 72.784 88.7758 71.8828 87.5084C77.2506 86.5498 89.6461 77.3178 95.649 74.4121C96.8555 75.2576 98.2143 75.8143 99.457 76.6Z" fill="#437DE9"/>
<path d="M185.926 88.1738C193.626 95.1043 193.309 110.632 189.298 119.376C188.279 121.597 186.974 123.672 185.926 125.877C184.687 125.039 183.388 124.452 182.004 123.897C187.267 114.798 190.136 106.871 187.988 95.985C187.477 93.3975 185.961 90.8217 185.926 88.1738Z" fill="#437DE9"/>
<path d="M47.1761 110.562C46.5757 110.617 45.9918 110.581 45.734 109.956C45.1977 108.655 44.5927 94.1125 45.4893 92.0957C48.2764 92.2094 47.2704 97.7406 47.3667 100.209C47.4512 102.374 48.4195 109.001 47.1761 110.562Z" fill="#212121"/>
<path d="M150.782 132.951C150.429 132.924 150.112 132.906 149.836 132.656C147.354 130.409 153.449 130.171 154.352 129.97C160.149 128.675 165.979 125.097 169.878 120.692C171.054 119.363 171.961 117.817 173.221 116.558C177.308 116.469 171.473 122.279 170.62 123.152C165.052 128.855 158.568 131.622 150.782 132.951Z" fill="#212121"/>
<path d="M181.11 125.453L184.506 127.689C175.35 139.898 164.937 144.984 149.298 144.917L149.311 154.861C149.314 156.493 149.422 158.194 149.298 159.817C149.102 154.176 149.299 148.469 149.298 142.82C161.846 141.996 173.632 135.613 181.11 125.453Z" fill="#437DE9"/>
<path d="M90.2074 135.44C91.2152 136.205 92.2758 136.866 93.3487 137.533C87.2549 140.902 77.4018 148.696 71.8822 150.947C69.6434 149.96 67.5223 148.6 65.4293 147.339L56.6146 141.98C55.21 141.124 53.5637 139.821 52.0508 139.271L62.5576 132.913C66.3451 130.656 70.1549 128.497 73.7092 125.877C75.5262 127.719 88.0828 135.471 90.2074 135.44Z" fill="#EE5B5B"/>
<path d="M96.5578 141.629C98.0924 142.085 99.2016 142.895 99.3797 144.563C99.6592 147.174 99.6896 163.974 99.0469 165.907C98.4053 167.836 91.9107 171.001 90.1898 172.092L82.4443 176.919C78.9258 179.124 75.7178 181.783 71.8828 178.173C74.8301 177.612 76.684 176.326 79.1871 174.735L86.7018 169.927C93.8766 165.349 96.5965 166.33 96.5812 157.421L96.5385 147.071C96.5244 145.401 96.3592 143.575 96.5256 141.92L96.5578 141.629Z" fill="#EE5B5B"/>
<path d="M137.074 141.628C138.555 141.31 144.313 142.824 147.161 142.82V144.917C143.752 143.732 140.251 143.608 137.074 141.628Z" fill="#437DE9"/>
<path d="M74.8749 155.008C75.9489 153.961 92.2169 143.831 94.512 142.82C94.5126 149.341 94.5794 155.869 94.512 162.389C89.1102 166.739 80.8848 171.064 74.8749 175.279C74.7893 168.526 74.8708 161.762 74.8749 155.008Z" fill="#EE5B5B"/>
<path d="M50.2395 143.521C57.5367 145.658 63.6626 152.234 70.1425 155.007C70.3235 157.3 70.1507 159.714 70.1466 162.02L70.1425 175.934C64.0229 173.606 56.7272 167.602 50.2395 164.508C50.4884 157.528 49.9717 150.499 50.2395 143.521Z" fill="#EE5B5B"/>
<path d="M151.255 170.121C156.349 172.408 163.959 178.316 169.383 181.389C162.958 185.349 153.721 192.21 147.164 195.199C144.083 193.141 131.147 185.443 129.312 183.449C130.869 181.685 147.804 171.158 151.255 170.121Z" fill="#1EBFA2"/>
<path d="M172.643 184.734C177.15 187.205 175.641 190.43 175.641 195.337L175.631 209.346C173.969 212.071 154.154 223.521 152.156 223.956C150.189 224.385 148.467 223.528 147.16 222.116C151.46 221.618 154.279 219.111 157.889 216.914L165.435 212.354C173.608 207.444 172.674 209.302 172.649 200.112L172.643 184.734Z" fill="#14BBAB"/>
<path d="M191.442 198.709C190.582 198.802 190.179 198.129 190.287 197.363C190.759 196.454 204.866 187.849 206.637 187.156C211.351 188.276 192.843 197.93 191.442 198.709Z" fill="#212121"/>
<path d="M107.214 198.709C105.882 198.566 92.7207 190.712 90.7432 189.403C89.699 188.711 89.7524 188.26 90.2088 187.156C92.2104 187.232 104.301 194.67 106.568 196.229C107.634 196.962 107.578 197.527 107.214 198.709Z" fill="#212121"/>
<path d="M127.585 187.156C130.267 188.257 144.027 196.575 146.051 198.709C146.246 205.705 145.856 212.728 146.051 219.722C139.774 216.191 133.915 211.837 127.585 208.412C127.387 201.352 127.548 194.221 127.585 187.156Z" fill="#14BBAB"/>
<path d="M150.781 199.225C153.297 198.061 155.643 196.464 157.993 194.996L170.37 187.156L170.381 200.128C170.383 202.142 170.555 204.303 170.37 206.299C168.097 208.44 154.429 216.72 150.781 218.566C150.891 216.397 150.789 214.186 150.788 212.013L150.781 199.225Z" fill="#14BBAB"/>
</svg>
