<svg width="185" height="200" viewBox="0 0 185 200" fill="none" xmlns="http://www.w3.org/2000/svg">
<path d="M188.122 37.9882C188.022 39.6444 188.641 41.2706 188.695 42.924C189.116 55.6463 177.737 65.9298 165.087 63.7929C164.091 63.6247 162.876 62.9411 161.905 63.349C155.777 60.777 150.44 57.0521 148.129 50.476C144.324 39.6448 150.158 27.3719 161.065 23.6611C172.886 19.6395 184.253 26.5261 188.122 37.9882ZM180.256 28.9078C172.62 22.4086 161.258 22.9257 154.244 30.0915C147.23 37.2576 146.957 48.629 153.619 56.1234C158.359 61.4569 165.679 63.7007 172.595 61.9395C179.51 60.1782 184.866 54.7069 186.478 47.755C188.09 40.8036 185.69 33.5333 180.256 28.9078Z" fill="#212121"/>
<path d="M180.255 28.9092C185.689 33.5347 188.089 40.805 186.477 47.7564C184.865 54.7083 179.509 60.1796 172.594 61.9409C165.679 63.7021 158.358 61.4583 153.618 56.1248C153.606 55.5454 152.683 54.3054 152.403 53.7228C145.149 38.6755 160.605 21.5713 175.954 26.9963C177.328 27.4816 178.847 28.7303 180.255 28.9092Z" fill="#EE5B5B"/>
<path d="M161.906 63.3491C162.877 62.9411 164.092 63.6247 165.088 63.7929C177.738 65.9299 189.117 55.6463 188.696 42.924C188.642 41.2706 188.023 39.6444 188.123 37.9883C197.341 52.6207 177.993 71.9442 161.906 63.3491Z" fill="#EE5B5B"/>
<path d="M54.8234 88.5431C44.6096 86.0052 37.7215 76.4629 38.529 65.9692C39.3366 55.4759 47.6037 47.0998 58.0855 46.1544C68.5672 45.209 78.1994 51.9714 80.871 62.1512C82.8032 69.5129 80.7101 77.3479 75.3637 82.7653C70.0168 88.1822 62.2099 90.3781 54.8234 88.5431ZM71.6748 51.6437C63.3858 45.5796 51.8347 46.8688 45.0862 54.6112C38.3379 62.3536 38.6379 73.9724 45.7769 81.3562C50.9691 86.7266 58.7441 88.7137 65.8767 86.4929C73.0088 84.2721 78.2819 78.2227 79.508 70.8537C80.7341 63.4852 77.7039 56.0544 71.6748 51.6437Z" fill="#212121"/>
<path d="M71.6736 51.643C77.7027 56.0537 80.7329 63.4845 79.5068 70.853C78.2807 78.222 73.0075 84.2714 65.8755 86.4922C58.7429 88.713 50.9678 86.7259 45.7756 81.3555C45.6651 80.4604 44.6345 79.3181 44.1962 78.4958C36.5262 64.1058 50.0427 45.0451 67.238 50.0205C68.6946 50.4418 70.1626 51.5384 71.6736 51.643Z" fill="#14BBAB"/>
<path d="M105.894 112.537C101.044 109.349 97.9764 107.098 94.848 101.96C81.0171 79.2481 101.715 50.0569 127.71 56.7783C135.888 58.8931 142.478 64.1644 146.734 71.4136L146.78 71.5311C147.282 72.7996 147.994 73.9662 148.454 75.2559C153.866 90.448 146.667 107.591 131.492 113.664C124.817 116.334 116.459 116.886 109.709 114.067C108.511 113.566 107.197 112.64 105.894 112.537ZM137.731 63.7482C125.904 54.4926 108.897 56.1307 99.0545 67.4739C89.2117 78.8171 89.987 95.8847 100.817 106.289C108.328 113.505 119.204 115.993 129.105 112.76C139.006 109.527 146.319 101.1 148.124 90.8421C149.929 80.5844 145.933 70.1672 137.731 63.7482Z" fill="#212121"/>
<path d="M137.734 63.7467C145.936 70.1657 149.932 80.5829 148.127 90.8406C146.322 101.098 139.009 109.526 129.108 112.758C119.207 115.991 108.331 113.503 100.82 106.288C100.706 105.508 99.2954 103.938 98.8395 103.185C85.0685 80.4354 107.492 51.7549 133.296 61.501C134.747 62.0486 137.001 63.5342 137.734 63.7467Z" fill="#437DE9"/>
<path d="M144.75 67.877C146.798 65.4386 150.749 62.544 153.919 61.9853C154.399 61.7788 154.652 61.8562 154.906 62.3149C154.738 63.6479 151.379 64.7141 150.327 65.3391C148.646 66.3375 147.265 67.7074 145.796 68.9782C145.272 68.8076 145.038 68.3117 144.75 67.877Z" fill="#212121"/>
<path d="M80.8718 62.1504C89.3268 74.8538 74.7883 92.8843 58.4177 89.5052C57.2045 89.2544 56.0125 88.8903 54.8242 88.5423C62.2107 90.3773 70.0176 88.1814 75.3645 82.7644C80.7109 77.347 82.804 69.512 80.8718 62.1504Z" fill="url(#paint0_linear_2539_13670)"/>
<path d="M186.896 66.1257C185.897 65.4961 181.235 63.8764 182.559 62.2847C183.635 62.0294 187.555 64.4041 188.644 65.0771C195.402 69.2527 195.83 72.1926 199.854 77.4547C200.11 78.7762 200.827 79.9465 201.255 81.2113C201.476 81.864 204.862 94.6813 201.363 91.1929C200.905 89.8225 200.978 88.0659 200.79 86.6241C199.861 79.504 193.816 69.019 186.896 66.1257Z" fill="#212121"/>
<path d="M186.899 66.1249C193.819 69.0182 199.863 79.5032 200.792 86.6233C200.98 88.0651 200.908 89.8217 201.366 91.1921C200.447 89.5885 199.578 87.9259 198.485 86.4338C186.862 70.5596 162.093 77.9701 160.173 97.5673C157.514 96.7206 154.764 96.8856 152.062 96.3246C154.101 88.3799 152.795 77.4165 147.211 70.9726C148.975 68.23 155.186 63.7967 158.416 63.3496C159.413 63.7433 160.292 64.3623 161.224 64.8836C167.565 68.4278 174.801 67.977 181.075 64.4181C182.7 64.7227 185.77 66.0747 186.899 66.1249Z" fill="#EE5B5B"/>
<path d="M146.735 71.4129L147.208 70.9727C152.792 77.4166 154.098 88.38 152.06 96.3247C151.912 96.8962 151.771 97.4701 151.614 98.0394C154.452 98.4358 157.299 98.882 160.171 98.8442V101.188C157.075 100.564 154.022 100.059 150.958 99.2521C149.782 104.286 145.683 108.176 142.015 111.554C141.616 111.659 141.534 111.773 141.245 112.055L141.143 112.113C139.536 113.045 138.114 114.216 136.46 115.102C128.037 119.613 112.795 119.944 105.895 112.536C107.198 112.64 108.511 113.566 109.71 114.066C116.459 116.885 124.818 116.334 131.492 113.663C146.667 107.59 153.867 90.4473 148.454 75.2552C147.995 73.9655 147.283 72.7989 146.78 71.5304L146.735 71.4129Z" fill="#437DE9"/>
<path d="M160.174 97.5665C162.093 77.9693 186.862 70.5588 198.485 86.433C199.578 87.9251 200.448 89.5877 201.366 91.1913C201.523 91.702 201.712 92.1731 201.938 92.6566C202.273 94.2888 202.755 95.9072 202.93 97.5665C202.964 104.2 202.029 109.886 197.121 114.817C194.478 117.473 190.721 120.204 186.899 120.662C184.66 121.337 182.638 121.403 180.319 121.325C178.736 120.843 175.377 120.337 173.538 119.923C166.035 117.269 161.023 108.829 160.174 101.187V98.8433C157.301 98.8811 154.454 98.4349 151.617 98.0385C151.773 97.4693 151.915 96.8954 152.062 96.3238C154.764 96.8848 157.514 96.7198 160.174 97.5665ZM194.439 84.5206C188.443 79.4056 179.989 78.3233 172.899 81.7628C165.808 85.2023 161.424 92.5119 161.729 100.387C161.741 100.698 161.761 101.009 161.787 101.319C162.14 105.419 163.759 109.308 166.419 112.447C171.25 118.149 178.875 120.653 186.146 118.926C193.416 117.199 199.101 111.533 200.852 104.269C202.603 97.0037 200.124 89.3706 194.439 84.5206Z" fill="#212121"/>
<path d="M163.872 100.486C165.02 86.895 177.25 77.9178 190.167 82.5276C191.651 83.0572 192.92 84.0796 194.437 84.5207C200.122 89.3707 202.6 97.0038 200.849 104.269C199.098 111.534 193.414 117.199 186.143 118.926C178.872 120.653 171.248 118.149 166.417 112.448C166.462 111.716 165.226 109.468 164.956 108.548C164.248 106.142 164.023 103.676 163.872 101.187C163.175 101.249 162.484 101.3 161.785 101.32C161.758 101.009 161.739 100.698 161.727 100.387C162.45 100.377 163.152 100.421 163.872 100.486Z" fill="#14BBAB"/>
<path d="M75.4769 88.3893L76.2282 87.0498C88.6044 91.9902 93.8314 100.564 96.2117 112.948C97.3451 112.495 99.7964 111.367 100.901 111.563C103.087 113.086 96.8436 114.482 96.2117 114.86C91.1289 116.037 83.8051 121.464 80.4799 125.128C81.9 125.032 83.252 124.916 84.6689 125.128C84.0987 125.663 83.5696 126.191 83.0814 126.802C81.7825 126.558 80.3444 126.714 79.0335 126.802C78.3937 127.536 77.7723 128.253 77.2598 129.085C73.1855 133.494 70.6029 142.98 69.664 148.658C68.7905 153.942 68.8043 158.184 73.8198 161.791C77.3151 165.109 82.7376 165.086 87.2013 165.078L152.791 165.075C160.914 165.137 168.175 163.919 170.375 154.204C173.683 139.6 156.71 116.899 142.545 113.71C141.455 113.405 140.7 113.279 141.245 112.054C141.535 111.772 141.616 111.658 142.016 111.553C148.614 113.532 154.06 117.015 158.897 121.857C160.507 120.895 166.058 117.61 167.907 118.159C168.47 118.325 168.81 119.023 168.307 119.47C167.896 119.836 162.105 121.699 160.171 123.073C160.724 123.749 161.248 124.404 161.701 125.151L161.904 125.482C166.701 129.445 167.221 134.103 169.9 138.521C172.037 145.375 174.197 151.712 170.601 158.569C165.721 167.872 157.362 166.862 148.392 166.858L104.884 166.852C97.601 166.852 90.3218 166.814 83.0418 166.967C80.9676 167.011 76.8731 165.41 76.2282 165.558C75.2837 164.813 74.1614 164.262 73.1814 163.554C67.1445 159.194 66.7209 154.488 67.9548 147.852C69.3533 140.334 70.879 135.568 74.9546 129.085L76.7352 126.802L32.9742 126.798C31.6756 126.784 29.8171 126.47 28.5747 126.802C25.9533 124.835 23.9343 124.315 22.38 121.029C20.2641 116.556 22.3356 110.445 23.9406 105.961C26.7338 98.158 32.6284 91.2863 40.1859 87.744C44.841 85.5624 48.2101 86.2824 42.4653 88.5686C36.5647 90.9171 31.1263 95.7735 28.0563 101.269C25.6235 105.623 20.2866 117.429 25.2084 121.74L25.3431 121.857C26.6239 125.631 33.5597 125.135 36.6521 125.132L66.5213 125.13C70.3264 125.129 74.1397 125.065 77.9438 125.128C82.5029 120.229 87.7913 115.832 94.2596 113.71C93.2746 105.065 89.3585 96.9213 81.9212 91.974C79.8613 90.6037 77.5953 89.6472 75.4769 88.3893Z" fill="#212121"/>
<path d="M48.7607 88.7428C57.796 93.5467 66.5395 94.8442 75.4776 88.3906C77.596 89.6485 79.862 90.605 81.9219 91.9753C89.3592 96.9226 93.2753 105.066 94.2603 113.711C87.792 115.833 82.5036 120.23 77.9445 125.13C74.1404 125.066 70.327 125.13 66.522 125.131L36.6527 125.133C33.5604 125.137 26.6245 125.632 25.3438 121.858C25.3578 121.066 24.9636 120.27 24.9895 119.455C25.1106 115.654 28.0007 107.042 29.8433 103.545C33.8414 95.9551 40.7364 91.218 48.7607 88.7428Z" fill="#1A8E7C"/>
<path d="M202.927 97.5664C205.492 97.9766 204.632 104.047 204.306 105.784C202.053 117.753 191.482 125.056 179.315 122.678C177.209 122.267 175.115 121.407 173.535 119.923C175.374 120.337 178.733 120.843 180.316 121.325C182.635 121.403 184.657 121.337 186.896 120.662C190.718 120.204 194.475 117.472 197.119 114.817C202.027 109.886 202.961 104.2 202.927 97.5664Z" fill="#14BBAB"/>
<path d="M142.547 113.711C156.713 116.901 173.686 139.601 170.377 154.206C168.177 163.92 160.916 165.138 152.793 165.076L87.2036 165.079C82.7399 165.087 77.3174 165.111 73.8221 161.793C71.0616 155.105 72.2439 147.411 74.5776 140.733C79.3165 127.173 91.0723 117.585 104.993 114.861C116.263 122.316 132.234 123.457 142.547 113.711Z" fill="#437DE9"/>
<path d="M80.4805 125.13C83.8057 121.465 91.1295 116.039 96.2123 114.861V117.199C92.0246 118.779 87.3079 121.433 84.6695 125.13C83.2525 124.918 81.9006 125.034 80.4805 125.13Z" fill="#1A8E7C"/>
<path d="M198.083 120.663C197.624 120.548 197.155 120.448 196.71 120.284C196.902 119.794 197.081 119.294 197.298 118.814C205.628 121.229 212.864 128.644 215.923 136.699C217.049 141.565 219.169 146.713 216.222 151.38C213.929 155.011 210.152 156.535 206.03 156.276C195.916 156.596 185.516 156.163 175.337 156.316C175.123 156.044 175.181 155.619 175.174 155.287V154.763L196.136 154.76C202.676 154.763 211.963 156.53 215.246 149.354C216.837 145.877 215.523 141.121 214.228 137.753C211.167 129.79 205.771 124.082 198.083 120.663Z" fill="#212121"/>
<path d="M198.086 120.662C205.773 124.081 211.169 129.79 214.23 137.753C215.525 141.12 216.839 145.876 215.249 149.353C211.965 156.529 202.678 154.763 196.139 154.759L175.177 154.762C175.008 150.247 173.37 140.901 169.903 138.521C167.224 134.103 166.703 129.445 161.906 125.482C164.858 123.498 168.169 121.379 171.701 120.662C179.206 126.458 190.97 127.989 198.086 120.662Z" fill="#1A8E7C"/>
<path d="M28.5742 126.802C29.8166 126.47 31.6751 126.784 32.9737 126.798L76.7347 126.802L74.9541 129.085L39.5322 129.092C35.707 129.093 31.773 129.306 28.5742 126.802Z" fill="#1A8E7C"/>
<path d="M79.0354 126.802C80.3463 126.715 81.7844 126.559 83.0834 126.802C82.3749 127.556 81.6982 128.376 80.9492 129.085C79.7157 129.12 78.4956 129.127 77.2617 129.085C77.7743 128.253 78.3956 127.537 79.0354 126.802Z" fill="#1A8E7C"/>
<path d="M169.902 138.521C173.369 140.902 175.008 150.248 175.176 154.763V155.286C175.132 156.162 175.102 157.09 175.176 157.962C174.241 159.122 174.064 160.593 173.404 161.888C168.451 171.604 158.306 170.073 149.349 170.069L91.712 170.067C85.8913 170.058 80.5997 169.779 76.2305 165.558C76.8753 165.41 80.9698 167.011 83.044 166.967C90.3241 166.814 97.6032 166.852 104.886 166.852L148.394 166.859C157.365 166.862 165.723 167.872 170.603 158.569C174.2 151.713 172.04 145.376 169.902 138.521Z" fill="#437DE9"/>
<path d="M175.174 157.963C175.1 157.091 175.13 156.163 175.174 155.287C175.181 155.619 175.122 156.044 175.337 156.316C185.516 156.163 195.916 156.597 206.03 156.277C206.267 156.727 206.495 157.307 206.851 157.669C205.086 158.3 202.934 157.767 201.089 157.963H175.174Z" fill="#1A8E7C"/>
<defs>
<linearGradient id="paint0_linear_2539_13670" x1="74.1206" y1="86.3803" x2="66.0713" y2="71.2031" gradientUnits="userSpaceOnUse">
<stop stop-color="#0CB69D"/>
<stop offset="1" stop-color="#25D7BF"/>
</linearGradient>
</defs>
</svg>
